<svg xmlns="http://www.w3.org/2000/svg" width="52.277" height="14.934" viewBox="0 0 52.277 14.934">
  <g id="LOGO" transform="translate(-61.735 -28.254)">
    <g id="Group_14" data-name="Group 14" transform="translate(3.896 -37)">
      <path id="Path_6" data-name="Path 6" d="M10.188-13.746a1.362,1.362,0,0,1,.773.221,1.405,1.405,0,0,1,.5.564,1.3,1.3,0,0,1,.122.729,1.252,1.252,0,0,1-.354.718,1.245,1.245,0,0,1-.486.331,2.062,2.062,0,0,1-.6.133,5.955,5.955,0,0,1-.63.011q-.32-.011-.586-.011,0,.066.044.63t.088,1.436q.044.873.066,1.945T9.1-4.928a17.08,17.08,0,0,1-.188,1.945,5.371,5.371,0,0,1-.409,1.459A4.279,4.279,0,0,1,7.381-.1,5.169,5.169,0,0,1,5.768.818,5.111,5.111,0,0,1,3.945,1.1,3.682,3.682,0,0,1,2.188.619,4.364,4.364,0,0,1,.917-.486,8.714,8.714,0,0,1-.022-1.923a1.287,1.287,0,0,1-.243-.74A1.516,1.516,0,0,1-.1-3.37,1.293,1.293,0,0,1,.4-3.89a1.18,1.18,0,0,1,.8-.133,1.39,1.39,0,0,1,.74.309,2.906,2.906,0,0,1,.486.552q.21.309.4.641a2.147,2.147,0,0,0,.453.564,1.467,1.467,0,0,0,.652.32,2.087,2.087,0,0,0,1.006-.088,1.78,1.78,0,0,0,.641-.331,1.544,1.544,0,0,0,.475-.608,2.965,2.965,0,0,0,.2-.718A5.311,5.311,0,0,0,6.3-4.155q0-.4.022-.773.066-1.525,0-3.039t-.088-3.039q-.751.022-1.492.022H3.249q-.508,0-1.1.055a2.388,2.388,0,0,1-1.1-.144,1.155,1.155,0,0,1-.685-.6A1.58,1.58,0,0,1,.2-12.519a1.336,1.336,0,0,1,.354-.773,1.169,1.169,0,0,1,.862-.365q.354-.022.707-.011t.729.011q1.834-.022,3.657-.033T10.188-13.746ZM11.47-5.282a7.27,7.27,0,0,1,.431-1.26,6.982,6.982,0,0,1,.674-1.182,6.635,6.635,0,0,1,.9-1.028A4.551,4.551,0,0,1,14.541-9.5a4.488,4.488,0,0,1,2.044-.541,4.288,4.288,0,0,1,1.912.409A4,4,0,0,1,20-8.387a4.546,4.546,0,0,1,.818,1.978,11.062,11.062,0,0,1,.122,1.425,6.263,6.263,0,0,1-.144,1.4,6.079,6.079,0,0,1-.9,2.066A6.685,6.685,0,0,1,18.287.21a5.069,5.069,0,0,1-2.055.917A3.383,3.383,0,0,1,13.989.773,4.924,4.924,0,0,1,13.072.21a4.045,4.045,0,0,1-.74-.762,4.173,4.173,0,0,1-.586-1.017,7.7,7.7,0,0,1-.343-1.1,3.971,3.971,0,0,1-.11-1.249,10.936,10.936,0,0,1,.155-1.227Zm2.652.464q-.066.354-.11.7a2.752,2.752,0,0,0,0,.7,2.9,2.9,0,0,0,.276.928,1.757,1.757,0,0,0,.552.663,1.384,1.384,0,0,0,.785.254,1.851,1.851,0,0,0,.95-.276,3.173,3.173,0,0,0,1.1-1.16,4.268,4.268,0,0,0,.575-1.635,3.3,3.3,0,0,0-.177-1.613A1.863,1.863,0,0,0,16.95-7.359a2.438,2.438,0,0,0-1.017.21,2.706,2.706,0,0,0-.807.552,3.527,3.527,0,0,0-.6.807A5.127,5.127,0,0,0,14.122-4.818ZM31.359-.575a1.521,1.521,0,0,1-.409.906,1.481,1.481,0,0,1-.773.442,1.245,1.245,0,0,1-.829-.11,1.2,1.2,0,0,1-.575-.773A3.449,3.449,0,0,1,28.619-1.4q.044-.674.044-1.249,0-1.193.011-2.376a23.382,23.382,0,0,0-.1-2.376.722.722,0,0,0-.044-.077.772.772,0,0,0-.088-.1,1.839,1.839,0,0,0-1.083.066,3.362,3.362,0,0,0-.972.508,3.726,3.726,0,0,0-.7.785,1.7,1.7,0,0,0-.343.961v3.05q0,.354.022.773a4.292,4.292,0,0,1-.033.818,1.913,1.913,0,0,1-.254.729A1.157,1.157,0,0,1,24.442.6a1.013,1.013,0,0,1-.453.066,1.924,1.924,0,0,1-.453-.11A.976.976,0,0,1,22.961.1a2.237,2.237,0,0,1-.243-.685,3.345,3.345,0,0,1-.055-.707q.011-.343.011-.541,0-.508-.011-1.47t-.011-2.022V-8.818a1.163,1.163,0,0,1,.287-.807,1.342,1.342,0,0,1,.674-.42,1.423,1.423,0,0,1,.818.044,1.372,1.372,0,0,1,.718.586,5.336,5.336,0,0,1,1.945-.773,4.335,4.335,0,0,1,2,.066,3.164,3.164,0,0,1,1.569.994,3.061,3.061,0,0,1,.652,2.011q0,.044.022.265t.022.619Zm11.448-.4A1.349,1.349,0,0,1,42.74.088a1.2,1.2,0,0,1-.674.564,1.428,1.428,0,0,1-.939-.033,1.825,1.825,0,0,1-.884-.707,4.143,4.143,0,0,1-1.2.652A4.845,4.845,0,0,1,37.7.773,5.581,5.581,0,0,1,35.691.519a3.85,3.85,0,0,1-1.492-.9,3.584,3.584,0,0,1-.9-1.492,5.413,5.413,0,0,1-.2-2.066,5.826,5.826,0,0,1,.166-.95q.122-.464.276-.906a6.563,6.563,0,0,1,.5-1.039,6.865,6.865,0,0,1,.652-.95,6.7,6.7,0,0,1,2.983-2.1,5.074,5.074,0,0,1,.84-.2,5.787,5.787,0,0,1,1.072-.077,4.362,4.362,0,0,1,1.039.144,1.291,1.291,0,0,1,.74.464,2.5,2.5,0,0,1,.287.464,1.169,1.169,0,0,1,.1.42q.011.221,0,.475t-.011.63q0,.619-.011,1.2t.011,1.182v.519q0,.32.022.674t.055.674a2.5,2.5,0,0,0,.1.519Zm-4.685-.994q.243-.155.552-.343a2.921,2.921,0,0,0,.552-.431,16.819,16.819,0,0,1-.232-2.343q-.033-1.171.011-2.365a3.694,3.694,0,0,0-1.79.862,3.616,3.616,0,0,0-1.1,1.613,6.668,6.668,0,0,0-.221.773,2.8,2.8,0,0,0-.066.773,1.554,1.554,0,0,0,.265.851,1.635,1.635,0,0,0,.586.519,1.8,1.8,0,0,0,.729.2A1.656,1.656,0,0,0,38.122-1.967Zm5.945.486a1.869,1.869,0,0,1-.11-.74,1.538,1.538,0,0,1,.188-.663,1.154,1.154,0,0,1,.475-.464,1.292,1.292,0,0,1,.751-.122,1.105,1.105,0,0,1,.442.133,1.847,1.847,0,0,1,.365.265q.166.155.331.331a2.653,2.653,0,0,0,.343.309,2.589,2.589,0,0,0,.8.42,5.527,5.527,0,0,0,.884.2.757.757,0,0,0,.5-.155.763.763,0,0,0,.254-.376,1.129,1.129,0,0,0,.033-.475.765.765,0,0,0-.166-.409,1.766,1.766,0,0,0-.917-.486,8.656,8.656,0,0,1-1.006-.265,8.4,8.4,0,0,1-1.3-.564,2.833,2.833,0,0,1-1.039-.939,2.884,2.884,0,0,1-.5-1.315,3.515,3.515,0,0,1,.11-1.359,3.424,3.424,0,0,1,.63-1.215,3.691,3.691,0,0,1,1.061-.906,2.815,2.815,0,0,1,1.017-.343,5.132,5.132,0,0,1,1.116-.033,5.322,5.322,0,0,1,1.116.21,9.55,9.55,0,0,1,1.017.365,1.741,1.741,0,0,1,.8.685,1.642,1.642,0,0,1,.254.9,1.179,1.179,0,0,1-.309.785,1.114,1.114,0,0,1-.873.331A1.629,1.629,0,0,1,49.68-7.5q-.287-.122-.6-.232a3.515,3.515,0,0,0-.862-.21,1.6,1.6,0,0,0-.751.055.443.443,0,0,0-.2.144.784.784,0,0,0-.166.3.722.722,0,0,0-.022.354.419.419,0,0,0,.232.287,4.982,4.982,0,0,0,1.127.442q.6.155,1.171.354a5.307,5.307,0,0,1,1.072.508,2.464,2.464,0,0,1,.829.884,3.545,3.545,0,0,1,.5,1.757,3.849,3.849,0,0,1-.365,1.713A3.7,3.7,0,0,1,50.541.21a3.343,3.343,0,0,1-1.7.674A4.35,4.35,0,0,1,47.492.807,5.148,5.148,0,0,1,46.21.343,6.352,6.352,0,0,1,45.061-.42a6.9,6.9,0,0,1-.928-.928Z" transform="translate(58.104 79)" fill="#fff"/>
    </g>
  </g>
</svg>
