<svg version="1.1" id="Lager_1" xmlns="http://www.w3.org/2000/svg" xmlns:xlink="http://www.w3.org/1999/xlink" x="0px" y="0px"
	 viewBox="0 0 28 28" style="enable-background:new 0 0 28 28;" xml:space="preserve">
<style type="text/css">
	.st0{fill:#FFFBF0;}
</style>
<g id="github">
	<g>
		<path class="st0" d="M8.1,16c1.1,0,1.6,1.1,1.6,1.1c0.9,1.6,2.6,1.3,3.2,1.1c0-0.5,0.2-1.3,0.5-1.6c-2.3-0.3-4.2-1.6-4.2-4.2
			s0.5-3.2,1.1-3.7c-0.1-0.3-0.5-1.2,0-2.6c0,0,1,0,2.1,1.6C12.9,7,14.5,7,15,7s2.1,0,2.6,0.5C18.7,6,19.7,6,19.7,6
			c0.6,1.4,0.1,2.4,0,2.6c0.5,0.5,1.1,1.1,1.1,3.7s-1.9,4-4.2,4.2c0.3,0.3,0.5,1.2,0.5,1.6v3.7H15h-2.1c0,0,0-1.3,0-2.1
			c-2.9,0.6-3.7-1.6-3.7-1.6c-0.5-1.1-1.1-1.6-1.1-1.6C7,15.9,8.1,16,8.1,16z"
		/>
	</g>
</g>
</svg>
